<mxfile host="app.diagrams.net" agent="Mozilla/5.0 (Macintosh; Intel Mac OS X 10.15; rv:143.0) Gecko/20100101 Firefox/143.0" version="28.2.3">
  <diagram name="Seite-1" id="XN_bXnJSx6e2Ccv-OUtq">
    <mxGraphModel dx="1047" dy="610" grid="1" gridSize="10" guides="1" tooltips="1" connect="1" arrows="1" fold="1" page="1" pageScale="1" pageWidth="827" pageHeight="1169" math="0" shadow="0">
      <root>
        <mxCell id="0" />
        <mxCell id="1" parent="0" />
        <mxCell id="SDy88jyCkdJX6beoF5j--4" value="" style="rounded=1;whiteSpace=wrap;html=1;fillColor=#f5f5f5;fontColor=#333333;strokeColor=none;" vertex="1" parent="1">
          <mxGeometry x="110" y="180" width="1010" height="260" as="geometry" />
        </mxCell>
        <mxCell id="SDy88jyCkdJX6beoF5j--2" value="" style="shape=image;verticalLabelPosition=bottom;labelBackgroundColor=default;verticalAlign=top;aspect=fixed;imageAspect=0;image=data:image/png,iVBORw0KGgoAAAANSUhEUgAABF4AAABGCAYAAAD1jlAaAAAAAXNSR0IArs4c6QAAAJBlWElmTU0AKgAAAAgABgEGAAMAAAABAAIAAAESAAMAAAABAAEAAAEaAAUAAAABAAAAVgEbAAUAAAABAAAAXgEoAAMAAAABAAIAAIdpAAQAAAABAAAAZgAAAAAAAACQAAAAAQAAAJAAAAABAAOgAQADAAAAAQABAACgAgAEAAAAAQAABF6gAwAEAAAAAQAAAEYAAAAAzpRdTAAAAAlwSFlzAAAWJQAAFiUBSVIk8AAAAm9pVFh0WE1MOmNvbS5hZG9iZS54bXAAAAAAADx4OnhtcG1ldGEgeG1sbnM6eD0iYWRvYmU6bnM6bWV0YS8iIHg6eG1wdGs9IlhNUCBDb3JlIDYuMC4wIj4KICAgPHJkZjpSREYgeG1sbnM6cmRmPSJodHRwOi8vd3d3LnczLm9yZy8xOTk5LzAyLzIyLXJkZi1zeW50YXgtbnMjIj4KICAgICAgPHJkZjpEZXNjcmlwdGlvbiByZGY6YWJvdXQ9IiIKICAgICAgICAgICAgeG1sbnM6dGlmZj0iaHR0cDovL25zLmFkb2JlLmNvbS90aWZmLzEuMC8iPgogICAgICAgICA8dGlmZjpSZXNvbHV0aW9uVW5pdD4yPC90aWZmOlJlc29sdXRpb25Vbml0PgogICAgICAgICA8dGlmZjpYUmVzb2x1dGlvbj4xNDQ8L3RpZmY6WFJlc29sdXRpb24+CiAgICAgICAgIDx0aWZmOllSZXNvbHV0aW9uPjE0NDwvdGlmZjpZUmVzb2x1dGlvbj4KICAgICAgICAgPHRpZmY6T3JpZW50YXRpb24+MTwvdGlmZjpPcmllbnRhdGlvbj4KICAgICAgICAgPHRpZmY6Q29tcHJlc3Npb24+MTwvdGlmZjpDb21wcmVzc2lvbj4KICAgICAgICAgPHRpZmY6UGhvdG9tZXRyaWNJbnRlcnByZXRhdGlvbj4yPC90aWZmOlBob3RvbWV0cmljSW50ZXJwcmV0YXRpb24+CiAgICAgIDwvcmRmOkRlc2NyaXB0aW9uPgogICA8L3JkZjpSREY+CjwveDp4bXBtZXRhPgpgtfwkAAAxyklEQVR4Ae2dCZgkRbW2p9sBBEQ2GRBEZpBFEVBAAReYbFmvIrgBwogsV0VRBFFxQexsLigqigIiKMo6M6ioqHhR+HFyWFQEARlEQJF9kYuILLJJ9/9+1RlDdE5UVVZVVnVm9TnP81VEnNhOfJkRmXEqs2pgmknpGIjjOBobGxtODYtKZ6AZZAyUm4FkYGBgoUxkLsVFm2rzs2hGrT1jwBgoEQNdXT8bjVNrq/Krdv/D9WZEdmN/rNDEGDAGqstARdeh2rpta1D5z7uB8ps4dSzUhPFuOKbOwG2kxkAXGdBNcREXI5ufXTxI1rQxYAyUkoGi1s9mg+uX9bVXfDXj0/KNAWOgdQb6YR2aKmvQ/PnzIx3h0dHRWjg4ODhbaQl76agW4QM+EsUpV/tCVnHJnDlz4lqkxx/meOkx4aHumOh6wmWBlyfPpfsGJfH0FjUGjIEmDGg+UUTwvznV4jtEXiJ9K2LzsxW2rKwxYAxUmYGi189mXKTrq57wjdKylbv/YQyxbHdfnE2VjU96vCwwBirPQNXXoewaxAGpraPok8ofHG8AqbNF14sJzhWvSMtR1u3afrtXjhhzvLR8iIqtoMniLta03JcTpVjGrDVjID8DTK+I0pGbY63eENv8zM+1lTQGjIH+YqDT9TMPG8PDw2OuXLvOcVd/ssPM9aJtZ/9kj8P6NwamEgNa57hHdF9+d2sftjScrg5WAQ+Bv4OnQaHSj2uQc7ZwjKJCyQo0Rh9dd8KY4yVAfK9U/mRvdUPYKxutH2OgHxjwL0Z5b+5tfvbDkbcxGAPGQKcMtLN+5unTazcZGRkZylOnCmVwJmkTF4G+GlcVuDcbjYFWGXDztQv7sGWwZX/wLrANkPPFiZwul4HzwOngKVCY9MPaOnfu3JhjMlwYKS02JCdMN56CGWzRDiteIAPOw9qFyV6gldaUMVB9BnQR0jzTSNy8azYqV64L81MO743BgeDr4GfgUnB1GiotvfJVTuVNjAFjwBiYFAbaWT+bGeptDKb1k9NF4/bGE2mczbiwfGPAGJgcBtL5Gan3gufqrjR5KzgZPAsOBzuDLdNQaemVr3JvBYVJOpaEBqOCx1WYjfUaksNl3rx5Y5PpdJFt6l92yJ56trajL4PjJcLwuAlUpq/ETYQubOr6iicbjDFQFAPehWiam3/12nb5Bc/PLejvJHAfWAROAYcAXXC3AcpXqLT0ylc5lVc95ZsYA8aAMdBzBlpZP/MYh2O79k2m1tg85atWhnENyWaNE+6iqtlv9hoDU4GBLq1DWtvOBzeBTcBO4BvgV+CqNFRaeuWr3E9BoU93uLW1KmtQWRwuHIcJAo+FOmDK4njRydYI0QQW+iDhJjtDSfpgODYEY6ASDPgXokYGFzw/t6Uv90TLh4nrPd9WROVVzz0Ro/ZMjAFjwBjoKQN5189mRnXJsd2s257mM8aEDgUTY8AYKCEDXVqHDmaoMdBTyzuCP4FGonyVU/kYqH4hUpU1SL/hAhbIwVHIwLvUiOyTnZ02XwbHS6djqFz9zGRPSjKACDuEGOjEchgj7uB0KuNA1MQYqAYD/oWIeBSyusD5uRrt/wAsBHqSpQhRO2pP7ap9E2PAGDAGesJAnvWzJ4ZUpJOiHFUVGa6ZaQxUigG+YJtdsMHr0d5x4FxwGBgFeUTlVF71VF/tFCJlX4PkdOE4LABRIQPuciOys9PXj6Z32UZrvtwMRJg3nJqoeDOJ0gIuVNLVd48Lx1KaGANlZUAXIi2eQOdu0iU79Zi5LqIzGrR/K3mXgz+De8FjYFmgJ1w2BK8Degx1AGRldxS6aXg3WJDNtLQxYAwYA91goIj1M117pzkndzfstDaNAWPAGGjCQKT8Ateho2ju36Ddp1ZUT78Do3b2Bn0terXIXQuqNlCug8PYP62dH98drNpg+8FeTjRtmCRJ7bO3HxHdaaM2loZKC53KMA0IajcGJsZAJRkoYH7uz8AvAiGni/5G8FiwEdC3GvuBL4GzwU/APHA8+CB4FVgbfBLcDrKi9tWP+jMxBowBY8AYKBEDbOiS1JyoRGaZKcaAMVA8A8vT5G5gLniwzeZVT/XVjtrrWMq6BlXh1aJm5Mv50s6rR+Z4acZsd/IjNetNiO70MrHViOSCFIp3U8wB0012re2OGPDmXVSnoZreK1enWFD932i/C7JPE+qvA48G64DPAD3lkkfuoZAePV0fHAT+CXxRP+pP/ZoYA8aAMdBVBrx1MepqR9a4MWAMGAPVYWBrTF0OXNihyb9M29mqw3ZKW13OCr7gjEprYAuGaRytOl/M8dICwRUuGmO7nC4RaCYJBYRmMtKsAPnmgMlBkhXpGwZ2YCSnguyrQTejey04Euh1onbkP1T6Fngl0Fz2Rf2pX/VvYgwYA8aAMWAMGAPGgDHQOwbWTLu6s8Mu70jrr9VhO6Ws3k9OF0dwq84Xc7w45vozjBiWNmlygNSThIyhFNrALQQRyCMqr7ojTQqrf9kRNSln2cZAVRlYA8P1my7PywzgMtL6JuT6jL7d5H1U3BGcmWlA/ap/2WFiDBgDxoAxYAwYA8aAMdAbBpZKu3k8Z3e6Vzs0gD3S+q69nM2Vv1j6my5R+S1t3cJWnC/meGmd36rUiDG0kbMjIV9OE0FxIQa+kybrUPHTKqfySRoOECrfL0NysUTEZE8MTIyBfmPgFAa0SmZQV5N+M3g4o+80qadfDgBytPii/mWHiTFgDBgDxoAxYAwYA8ZAORlYG7OOCeDj5TS3M6vkdNFvonTWSrlry/micTaz0hwvzRiqZr4OfL0TPCFvKIXiTiIifh05UGLgS0zCd6yofAScxESEAeCXI7lYVCdenLKIMVB9BiKGoB9D80U/kiZdu68W+W2F4vr7wf1B9kka9RkBE2PAGDAGjAFjwBgwBoyB8jFwFSbpB3Sz2Lh8pnZm0VRwujiG0n87il06FJrjJcRKtXUx5vsOFH80QySExFem8QWeTvmxl/aj0ieewq/nqWv1zfniM2LxfmUgNN8+ymDv7fKAn6T9fYGcML6E7PHzLW4MGAPGgDFgDBgDxoAxYAx0jQF+0yWajCddZsyYMU2YDEn/7Siq1/f0ehmmryQDMVaHNl0Jejlc6kmcyWhUVkWVvwBEQKJ4qE6MXvDLkqyJszNO0xYYA1VkQH8LHWUM/z3p+Rldt5LX0fBZYD+vg4i47LrR01nUGDAGjAFjwBgwBowBY8AY6AkDo6Ojcrz0pC91ImfLJptsMsHpcsMNN9T6X7RoUc/soCPtcZNQh/bES4iVaupizHbODH8EIyRCThFXJibi12tU1tVRqHadRERilwiEatMv74qo39glLDQGKsjA7gGbvxrQdVMV6i9kVzdtsLaNAWPAGDAGjAFjwBgwBoyBab18xUgOl+22266G7JMuG2+88TRBDpleSfpju1GoP3O8hFipni7GZN954kYgZ4fy6klEhl9P5ROQRxIK+c4UtROBehKT4Zd35ZrVc+UsNAbKyMB/ZYzSb7qcn9F1Oyl3fva3XrJ2ddsGa98YMAaMAWPAGDAGjAFjwBiY1qtXjORQkdMl63DJHgI5X/baa6+eOWBwvizI2qD09JDSdJVjwHeeOOObOV1Uzq+Xp7xr24UxkdkgAhK1lyhSR+JU7/cr1QIwkOZZYAxUhQH9hfOrMsYuJP10RteL5MV0sqnXkeySfc96OosaA8aAMWAMGAPGgDFgDEwuAy+m+/cETFg1oKucKs+/+3Q6KDlc5ExpVdwTMHoFqduvH4mHOXPmxL6N9sSLz0Y14xMOaDqEhDCkT7NrgfKjWmz8I/birUTlsHESEYldok6o/CSQJ72JMVAlBmZh7PMzBus3VyZDsv3KLtlnYgwYA8aAMWAMGAPGgDFQHgbWwpQjAjioPCa2b0k3n3ZxrxVlnS4PPPDAtEsuuWSaQl+c3v3Wi8vrxRMwoR/atSde3BGobph9ekQjGcoxHL+e7zzJUXVCkYSU+tNTKxK1m6QgCIrKj2Vy8tTLVLGkMTCpDKwW6P2egK4XqvsCnci+vwb0pjIGjAFjwBgwBowBY8AYmBwGrqbblQJdr4vu1oC+MqpuPe0ih0v2h3NFihwrenIl63DxCVOey1c7/mtJ7gmYkNPGb6OouD3xUhSTk9NOHOg2jxPFr6fyfjrQZFNVQgnBiZwozSRkZ556zdq1fGOgVwwsH+jo3wFdL1TPBDoJ2RcoZipjwBgwBowBY8AYMAaMAWOgMwYGBwdnd9ZCuHbod1zkLGnFYSIHjcpnn35Rj2q/SzJhb2tPvHSJ5R40G9HHhIOZ9hmnYaMgVK9R+Tx5cqREaUEXpslgEKPV5IyAk4iIkIAqyQDG7gHeATYEM8GD4HZwJTgR3A+mmhzJgFcAOt+e6MPBPxIYU+gbjECxwlXrBFoM2RcoNmkqmzfPUf8hous+l1wipvXkz+BacNcSuabohAH9FtIXwCA4CdwBTIwBY8AYMAaMAWOgRQb0jz4tVslVXA6T1Vdfvfa0SrMnXJo1qPqC+6cjPQGjdDfE/cMRP+ybqH1zvHSD5d60GQW6GQnosqrYU6i8n/ayWo4m1BAiIIlTKF5P1H+UydQmPcnoypx8BcadCV6bMXJF0i8DcqEeBj4NvgGmknyUwb4IHAf60fFyb+BgzgzoeqFaL9BJyL5AsUlR2byZSPt7SW49URVMjaI9C+jd8DIf36DxJVXqPujw1LZfEN5RUjvNLGPAGDAGjAFjoLQMdOs1Iw3Yf12oKAK65WxpZJ9uOEyqyYAcFFmJs4pAOlQvUKwtle9IUT9xk1YS8oUIVFH041i/AmuDp8DpYD64DejHTfX0ywfBW8Dx4B/gHGDSHwzczTD0VMkLveFs7sV7Gc1u2mWX7CujFD1vlmKQoVetejl2PTUhp8hYh52eR/3fZ9pYhvRLgI6x/q1qP7AZ2Apo3THpjAEdNzlbBsHjnTVltY0BY8AYMAaMganJQDd/VLfijGpPnGgM0/VhUjkG4oDFcno0k9groPJ+2stqO5pQU4iAJAIJaCQLyYy8AooLCSi7fBYD5XR5DLwJXAV8+QuJC8Ap4EAgzs8BJv3DwO8Yyo7ecLQ51utGD3u6bkf1OleU6UR2lVWKmjerM8BvAYVvmMTB7k/fmtua4xd2aMfPqH92gzbeTd48IAfM54Be5zPpjAE57WZ21oTVNgaMAWPAGDAGcjOwJiX3C5ReJaCrhGr+/PkRr9VUwtZeG+m/bjTY686tv64xEHet5dYa1gbEiTx8zSQJFMhTL1Ct56o90x6/TJh1uvjGfC1NrEuoVyxM+ocBPfHky9Ik9vYVPYjvSh/q15esXX7eZMeLmjczGcjbgZ54mUzR7zvJATvQAyPOpY/T036iHvRnXRgDxoAxYAwYA8ZAsQy8mOYODWD/YrvpXWujo6NR73qrbk/meKnmsZudMTvJpOslfYdGXK9QgfooR1sJZYSqif4xZtXU6BuaGH8L+fqGWrC/921CVsWyv4+9elXBl0+S0OshvRA9tZh96kH2yK4yis2bzo+Ke5ppk86bshaMAWPAGDAGjAFjICcDm1LuANDpFz5/oI0ZAWR/L5IiNVF/6lf9m1SQAeeYavaq0YKSjE0Og6yzoRumDXWj0S60GWXaXJhJh5J+nSRUoCCd2hYiIIlAAlqRqJXCk1RWvwVwG5gFtBD+BDSS6xtlpnmvI9weaOFdGciho3o/Ag+ARvJ6Mt8DZgK96nIvuBmcDO4BWRlAsQ/Qb1OcAfSKjJ6c2A5IthwPJnwqLwKyb1mg9i8BPwBjoJG8iMy3As3jDYFew9JTQqeCp0FVRdzq2L/TG8BM4r16DeQD9CU+ffkpidAx98tMVrzTeeOftxukg9CrRvuncZ1Lc9O4C15I5H1A5+1LwVPgVnAR+CEIiZykm4PrwJ1Ac2MXoD6/Bq4BypesMx5M25lQtkiuBDfWYsV/yHkleXI8qPupce8ONO5Nwf1A68kV4GLQSFS3Vc5ce3rtay8wC+jG8iHwJ3A2uBY0khXJ1FzaAshm1dUN6qUgASHxz4kzKKC1RseqlbVGfa4A5gOdH07880C2bwO0Rr8R6BUlrdGqIxsbidZLcfIaoHHdAbR2/gporsrWdUECbgMmxoAxYAwYA+Vj4M2Y9EWgewddA3olz6ej74LPAF3HTSrKwPQmdkdN8nuZXSZbejnuovry+VtYVKMFtSN7fPsKarbrzWjjdiA4HJwP/gjakUEqxUCbdW0inOjmXvJ5sA/4f0pkRHXPAnMyepfUo4yq+2OnSEPN/TPTuJwv30njCv7jxRVdGnwDfFAJT7Yl/n7wMbArqOccWpM8XaTWA07k6JFd+4PdwF2gqhJj+NuAeHTyWSK/A79wii6E2sB9JdOunnY5OqMrW7KTeeOft25ccqZ8L008Teg7XrYi/UuwUprvgiEi7wOXgh2A6vmyBwkdwxOAym4CnKxJROey8n052EsorxuOF813nWsSnV/1ZCMyNOc3zBR4e5rW3P8weDyTr2S7nKmujoPmdFZ2RKG1KAZHgZDIQaQntWZlMrW2SL4NDgFZh5N/TlxGvo73y4ATt9YcgEJthdYarW9rgUsy+buTPgJonmkMxwJfdiIhm3QNON7P8OIaz4/AZp7uDcT3Bo+CtwBxo+Oqc/K7wMQYMAaMAWPAGKgMA4ODg7PtN17qHy7xo1zdxJlUi4GoAuYu9GzMY2/ilXfRPPVc2ckKdYOsG+flgL7hluNkZdCqnEqFI8EY+BrQTbk2Ttr8XQfWAPpmdBuQlcNQzAHacJ8I9M3tBmB7oE2IbPsOWA348gyJR1LFKYR/B/uBlwN/00Ky9kTHBwmfAJ8AWwD1cxp4EGijNh88D4TkYpRrgU+CzcGrgOx+FGgzchyosuhb75MyA9DaKgeAjkU3ZG0a1QZTx9cXbU6v8RUljHcyb+QUPAJ8Hjhny/1pWjrBiZ4y+DlYCVwLdM5pc78p0Eb532BboLmXFZ3Xko8COV3OBrporgNOBOLe9XcbcYnmgNMtqGmK/dC8PAPIjieBvvkKiZwtWo8U3gz2BJrXWj++CDT39wXng6x0wpkcB3K6qH3NB6U1vw8CvwYDYASI86zItsvBLPA38N9Ax0nrmNaHUfABcDFQO76ov8dTxWWEawKtNVuAV4NPAeUr3upa8zB1JPuDY0ECdgGa1zuBS8F0oHY3Bll5AYrfAvHwFNAx0zmo8X4BaP5eCLYDkn+NB/ZpDBgDxoAxYAwYA/3GgG4YTKrPwDBDEPJKq+Vdu2Mu0kLYbl8tdDFpRa+i59lAN86rg/8BRwB9u3ku0CZBN9uNRDfk2mRI3gnOr8XGP/6cpr9P+HZwFBgCvrwvTZxJqE2ik78Q+Q1QuBaQnecBX55OE48RapNyj5+Zxt9MKGijtzPQRkNyDfgx0CZUm7w3gTeChSArK6F4Hbjay7ie+O+BNkq7AzmtZGtVRRuqHcErvAGsSFwcbQW08StKVqChC8CLMw3eTPoTGV0Zk53MG61B2rBKxOsB4C6guZeV3VCsBp4BOsduBU4WEdE5fQLQ3DoS+OLmhnRfBVledd4KkteDWeAc8L+gEzmIytt7DSxNXGPQsda5NQBuBBq31oeQyEGgDb/mv57mkYNJovPjcvAzoHmsfrQu+HO2E85GaEtyFDi6Fhv/uI7gbKD5vQZQH+rfySCRbwCN9XdgF/AP4OQSIir/Q6A15r3gTOCLjuXy4EVAx0PnmJM/EtFaswDoPGhlrVG7ErWrdX1P8CyQaDwXA9k3BD4N3gN8OZTE6uAJIEeNO2eI1o6FuP850Nglj44H9mkMGAPGgDFgDFSHAf1zT3Ws7b2ljh/d8JgYA8ZA+wxcS9XXAG0cdNP8fDAH6Gb67+CbwN+Mk5wgx5AaAPOA73RxhZ4h8iHwCIjA64AT1dOGZgQc6ZReqJt9txFc39Nno9pYhpwuKqdvyCXfA9r8ZEUOFKffNpuZpk8j9J0urtgVRLQZ0jhe6ZQVDcW1NvAPZezXuDT+IkXtbZpp8J+k3wYez+jLmux03uQZl85pzY39wa2BCtpIS14GdA6G5GGUR4UyuqTbmnblWHB4N/HtwEZANsqez4MrQUi2RKnz4D/g/cA5XYguFjk3vpamPrtYOx7phLMV0ra07mXlMRTvAh8BF2Qy9ya9GXgW6Fj9A2RF6+kpqfILhM5R4crJISf5LvCdLjUlHwloZ61x7T5F/Y8D2eiL8uNUsbGfQXw6UB3JycB3utSUfFwE3Liky7YvnYkxYAwYA8ZAfzHwEoYTB3BIfw3TRpNlQDcGJsaAMdAZA3dT/VAwDPYF2ixtDVYE+gb7QKAbb92Ey5HiyzZp4nu+MhPXRuYSoI39FkCPrkt0039MLVb/464064X1i9Q2JaFs2e82+MeHCqQ6babWArfWKXN+Hb3UfwJvAusqUXHREwXa9GozJQecE50PlwM54ToVnUt7ZBp5kvRu4KaMvuzJTuZNnrFpoxva7Lq69xHRRlfHSht5ba6zcg0KOT17JXKqLcx0thTpVcEOYEdwHjgMhOakW0/kXLkR1JN5ZHwKaD3xpRPOrqOhWeBY8DSQnb4j8ArSQlZmp4pzCRudw18k/8NgTbABuAFk5SdZhZdeRHwIrOPp8kavpeAddQqrXUm23ZeiW6mWs+RvMaXqWqBxfdRXWNwYMAaMAWOgrxmYwejeHxjh8wI6U/URA+Z46Y+DqZvJpMlQYvKH0zIjhErnkTGv0IAXbxSNyWylL798o3bLnvcvDDwhhRwRB4DDwQvAwUALrTbhTl5MRHmSnYHbNNUUmQ/dxEtm1j4nfixDcl+wPZgJ1M/yQPN7WdBMbqtTQJsbyaPgr7VY+OMvqIV6Us8ho/LiTOJ4GE9V91MbV11Mz84M4cukfwUa8ZipskRyHTTHLaEd70/9VlVanTetjnMzKmjebQlWA6sAzRnNj2Y3OfXmBlW7IpfS6jl1Wv4qejlMNJbPATny5ODwxc3ZlVHGfkYm7sa9KnrNPT2R4ks7nH2GBuREFb9ngJOBxnMJ+F9wIwiJs/m3oUxPJwf07WA98HIQcrw0ml+PUEey4njQ0mc77a6b9iC7hXpyPxnKX71eAdMbA8aAMWAMlIKB0dSK7H5oLNW7a2szY/WljvYJWVkfxS3AtefyXX+uf6cvTTgwMJC412lKY1SJDBE/Mkc3nibVYiAJmBuhC+n9osofThWz/YySxpOS2pXXrHso+D/gNHAK2BXsCb4FFgLJy8aD2ucnvHij6KxMppw3PwZbZ/RanOUwybNIZzdvriln351O0WboNjxtVq9cNW2c/wvs7Vm+HHEd+x08XavRr1Mh66DSRlz99YvkmTetjPUDFD4JLJWp9ATpJzO6ULLe3AiV7bZON2J6gk7riJwbcnL8Evji5qxecRPyiNYU99SGyrfL2c3UXR8cAmSnnD9yKAtfAcr/FPgp8EV1JH8bDxp+3kauHC8vrVNKa143pJ12nY135zBI5/3qOcpZEWPAGDAGjIHJY8A9xal7Mf/e9l+pSVrHG30R2cxydx1w7bny7t7P9e/0FlaMgelN7E2a5BeRHeVoJMlRZioXKZsjxbdnqh+7+zgxtQHXpmIG2B44x4u/gO6HXhurZuJvTrSZvBKsDfSNqZw8PwN3gAfBs+Bw8CXQjjj73ILfThtTtc5HGPgQkGPMiY69Np7agLYqL6GCXmPyReeW+ulHaTRv8o73QArK6SnRExdzwe/AA8A94fFv4suCqsg/MfQWsCFYL2C0m7MXknduID+kut1TdsrZ/9HW58Aw2AxEQA4infuy+XwgJ7Oe3nHijsXyTtEgdGtRmRxi9czVsZK4G+nxVPgzT5lwTdMaA8aAMWAM9IoBOckluu++txYb/7g+jeu6d7mnbzW6eVrBtefqqz+J6388VaLP0dHRhTzVEZXIpFKZIn5k0PQmVmnj0G2J6UA3aY1ExsaNCkyxvITxRi2OWXWcRESEBHRDIq/RxIvXi/qOGpVJ6hUskX4nbNkN3AmObWKXNkN/BDuAdbyyt3rxXxO/y0vniW5LIS3GD4I3AL89kjXp5Ib+r2kb2vRrrfhPmragOQPadB0CfpAp2uxcyRRvmFT76qdKUsS8yTve96QF9aTQxwKVXoiuSk4XN4Q7iMiJ4a8lLs/N2ftQnOWULYRFcfYsfV6d4jhCrVOyJwK63h8PRoHEPSmz/niy4ed6aW47zsuGDXch063Hepx8RfCvOn3ImbRmnTxTGwPGgDFgDJSHAecQ2QKTrvTM0rVXebqGnujpW43OoYLacddyV1/9SVz/4yn7rBwDg5Wz2AwOMRChFJpJ0qxAAfmx18aIF28UjTKZcrSVXbRp+xD4dE5D3YbB91Y/Ql19Qyx5/XhQ9/PL5FwL3u+VeGsa17fb7ibfy65FX5FVtJDW0zXaHD0P6FWpeiIOLgIH1CswRfU/ZNwLujT2X9Ou2q+aFDFv8ox5VQq5OVXvJujleRoqYRm3hoQcL24d2Bq7BxrYrleStJ7oxlHzW9IJZ8tRfyMwSw0FRE5lt3atQFyOGCe3pJE9CBvZ/CbyV0vL3pSGZQ50LLR+akwHNzD0g2mZBkUsyxgwBowBY6AEDOi++Hbw5oAt+pJnS6BrWTuieqqvdrKi/m4H6r+UMjg4mJTSsJIZZY6Xkh2QnOaMBMpFAV1W5dfTt45lkLgMRrRhgzbUY0DfZO7VpP5+5M9Ky9yQKXtumj6KcKlMnkvOJPIR8Grge9ibzd/1Kb89aFeeouL5aeXDCbWByMoyKD4MdgDuNYdsmamc1pMW2nwVKWrvsCIb7GFbRc0b32TnOPB1mpvN5sdBfoUC4iE7Cmh2iSbuTjUvXSJn/PdTnkQvJ8h7A/lOpdd9tJ7cA55NlZ1wNkQbfwLXgHo8aK1w8qiLEJ4FdE7Lnno3rFp7jgGSi4EcOWUXrYfnpEZqvm4YMHgmOq2tJsaAMWAMGAPVYGAeZu4E9DSjL2eQuAJ8G2wCWhGVVz3VPwP4on7Un/o1qSgDzjHV7Ma0osPre7MTRij4MttP1Iknnj4iLhQpMY0New0q3Uz88q5s7CIlDh/EtvNS+04l3A9MT9MuWI6IngbRYirR4/E/qMWe+ziaqH7jYAPwfaBvnX2Rw+YXYFlwGfAfM9QmR7I70DfcvqxJ4gywVKqstxlKs+sGR5CjjdlW4DTgrxnPJ/0d8BIgJ83FwGQiA3rFTOeAHhu9owCoHbWndqsoRc0bjd1t3jclvlqGjIdIi2+J5pjmjy8HkNjHU7Q7P9SEs2M7r71uRu9KG1870Mk96E5M9ccTviNTRvP3k0BPWUhOGg9qn51wdhUtyHGzEjgW+OsEydrx+aYiyKVAfTnRufy9NKEwa/Py6H4EtMZpLZIToypyJIZqbVwZ/AbsCbTGC1q3f5/GNS6TfAyIy4uArjfisJ6cQIbKKKwnqq8ywovqFTK9MWAMGAMeA6cQ15cFn/F0iuoa+Hbwf2ABeDPIIyqXANVTfbXji/pRf+q3tLLXXnsl7p97SmvkJBomftR9dqM4iSZZ1x0yEFFfSEAjGSFzOC2gMEnjRQfqp5nEgQJ56gWqTYpqH3rVRmMHcDr4ArgR3A/02yqbAd1gS+4Euul+RglPHiD+UXAq0IL7RpAAba5mgHcBOTjuBnsBX+aT0CZEnvLfghvAQrAy2DkN/0T4SrACaEduotJngTZTBwBtfi4D/wG7gHWA5OPA30zVlPZRY+ArfAom4wwUMW/U0u3gSaD5oSfBfgx0c3Ic0LzSeTsXaN7sCn4F7gVbgNcBzY2NwADQ/Pg3aEf+nFY6iHBdcDXQfD8DdEP+kjb6YkLNvzsynXyRdAReC+Sw+A3Qa0VjQOuLniyRDINf12LPfbTLmfhWe0eBT4C3gQuBHAriWrYMgn+BQ0FW1O+rgMqdB2Tz9eCFIAJrAa05Wme0zlVF7sRQnXtnA63n5wJfdEw+APYCb/IzLF6XgeXI0TVXctF4EPzcEu1WoNG1byb52wPJMuOBfRoDxoAx0JAB3Z9/ExwMTgd/AE7kPNF1dh74RYqvE14KngZOliayLdD18C1A1+K9ger7ovuVA8GJQP2WXbSHi8puZK/t42+2xUtNzPHimKheGDq5deObNBlKTL7KSaIUCWGnEtOAa1dtKd1M/PKubOIiFQifwkZtML4F3g20ERJ8uZ/E94C+fX7Qz/DipxO/BcwHa4PdgZNRItJ/DtzjlGmo/ncDpwLdiG6cgqD297C6oV8FfBssD7KiTZHEheOpJT+/jOpGIDs3SkFQk3/wqXNRF6GsuHZdmM1X2uVpU2UyNRjQeVvEvJGj5DPgC2AW0KZccg6QI2AekBPyGLAieAeQPALmgg8Dnddrguz8aOW8PIn6cppuAt6a4ieEZ4C84s5/12+jenIyiUNtFNWvbup8+SeJbcAJ4H3g9SkIanIHn+LkO+PJCZ+dcHY0LT0KjgDrgYOBkzEicqh8HjhHlctTqJtN3axqrTkIvCEFQU1u53MfcHktteSH482FS5ZovNa4ei509V3aHR+nz4Zap13ZbN5FKF4FPgY2AxsCrZsXg58DjWlfIHl6PLDPBgz4PGse1BOX58JQOT/PuA8xZDpjwBgIMaBr2W5A9+dy8j4MnPydyI5gH6Drodb6x8HfwENA9+XrAt13/BXsD84Cuo74shIJtX8nUH8mFWVgzpw5sTN9uotYWDkGEiwWIuAkIhKnIKgr2igPp7kKkzReVKD2m0kcKKB6SUBfZpU2f7pp1re8rwYvBfoWXgvlLUALcB65gkKquy7YAuhb/HvATeBeUE9uI2NHIKeLnCIS3cj7db5T0y75scaSqrqaC8iZAbRp0CZiKfA3cD14DIQkT/sxFYV+l6UZ4DZAF9x2RRdsPW3UDxuEouaNnA5ngV2ArmcPAs07J3IIzgWbg7WB5stvgNtIr0U8JKegFPKInAabAh3f9cEokHOkFVHdvPIEBbU+NBJtKA8EhwFt9l8GNE81/kXgGVBP2uVsjAZ1PLTeiA/1KdE6djPw1yTps6Lz+lDwKSAn1suBbP4DaPZNX6drzTr0EZI858GzVHxeqLKnkwNe4wrJAMpXphlaU00aMyAuxVkzmd2sAPknpMhR1IoYA8aAMbCYAV2b3gl0v30B2BlI50TXhTPAmUB7g+2A7vF1D3g90H3LJeA6oGtnVl6AQu2uCfSlhN82yXKKXqeZP39+whMeUTkt7L1V2devdKNqUl0G5KiIMuYPk44zumxS+SoniUCcgqAtianl2lMDSjcTv7wrG7tIBUNtvi4uwG7deLdz830D9YRuyhiN35Sim/30W9v6VkObfW1GOxVdsF8P9O1JP0gR80YOKd3E1JOHyfh1vcwC9ZfRllAm0XlyeYpW7OqEM/X52xSt9OnKyml0dQqnq2r4RQzfHOj8lAMwJO9BuTK4C9wdKmA6Y8AYMAaMgdIxIKeJnnr5GdA1b3ege2RfdN98bQpf3yiuLx1+CNYFuwL1UyUJ7U2rZH+hto6Oji70Gxz0ExavHAMJFusEz8qCrCKQ9uvJCRIFyuRVqb4Tv12ny4Yh+/LUy7ZjaWOgCgzsiJFFOF00VrWj9kyMAWOg/AzoW0vNV71C9eqAufrG9ORU/4NAvqmMAWPAGDAGysuAnloZAquCq8ABYAC0I6qn+mpH7aldtW9SYQb814w0DHO8VPhgpqbHgSFE6EJ6v6jyE0/hO088ddNo7JVIiPtpL2txVPnR4tRzkfi5qMWMgb5i4DZGM1bQiNSO2jMxBoyB8jNwKibq6SE9Lq5vPW8H54LTwO/AeUDOmUXgc8DEGDAGjAFjoFoM/B5z9aXYheC74BqwN3g+yCMqp/Kqp/pqR+2p3cqJXjfyf0y2cgMo0OAQD9MLbN+amjwG5BVdkOl+OE3HGb2fHCERpQqFcQqCXBJTyvWjCmqvkcRk+uVd2Wb1XDkLjYEqMqDHRPcDB4FVQLvyEBX17XjVHjttd7xWzxioOgN6/XM7oFeO9OTLOikIaqLfOvoq+DJ4sqaxD2PAGDAGjIGqMfAgBu8BZoMjgV4tfRRcBK4AegXpfvAEWBasAV4O3gB0bVgB6OmWCCwElRY95TFv3rzQfq/S42rV+OzTLqpvjpdWWSxn+QSz5LzInuQuHZMXkgSlX0/lpROaSUQB177Kqp1EkToSo/fLu2KqpzwTY6CfGTiLwQkmxoAxMLUY0LeYOwHdaG8A9AOL+h2cv4C/AnO4QIKJMWAMGAN9wMBCxiCsB/YEOwDtc+RYyYocM7o+fAl8H+h60DfCj8oO8cTHgr4ZUIsDCT3toiYGW2zHipeXgRjTNLmzImdHoxM/Jj8BTkLOEZfnh36b6jf2MzNxlQ2126xephlLGgPGgDFgDBgDlWRA33ZeCs4BPwF6GsacLpBgYgwYA8ZAnzEgJ8oxIAIrgrXAB4BEodLSR0Dl+srpwnim6ZWj7D/6SN9teeCBByZ0kU1PyOxSQk6X0NMu6m56l/q0ZieHgTjtNuvkiNCPgXqOjqE0n6C2CMhRIl09Ub4vsZ/w4hHxbFmXXc8Wl2+hMdBPDOgd3gh0+qpRQhu2WYMEE2PAGDAGjAFjwBgwBkrOgPZf94JbUzsVKj0VRHu9qJcDXbRo0TRhxowZtW4nw/EyODiY1BuzOV7qMVNdfZyaPhwYgtO5Mn4ROVqckyQiHqcgmCAxqcjThBw0yldfCkNiTpcQK6brVwb045lXgo0KGOCNtLEVeKyAtqwJY8AYMAaMAWPAGDAGjAFjoHAG9NTL3LlzR3jyxe0/C++jXoOT4XCRLXraZe+9907q2TVYL8P0lWYgxno5N0Kik38MxCkIapLw6ddRuRj4EpPwJ4/KJ8BJRGRBCsVDYk6XECum62cGdmRwRThdxJHaUXsmxoAxYAwYA8aAMWAMGAPGQGkZ0Cs39X7vpLRGt2lYo1eMXJPmeHFM9F8YM6QhkICQyIEijIEYRGmYdb6gXiwq78Q5UCIUwoIUiockQSl7YmBiDEwlBvRYqeZZEaJ23OOqRbRnbRgDxoAxYAwYA8aAMWAMGANdYUDOl8n4vZeuDKZOo3mcLqo6vU59U/cHAwnDEGLgO01IThDluXzf8TKhkJdIiM8GY56uUdQ5aRqVsTxjoF8Z+CMDmwMOAp3+xsvJtKH2TIwBY8AYMAaMAWPAGDAGjIHSM8BrR0Pz589fgIMiKr2xLRoopxKvF8V5qpnjJQ9L1S+jk8HBOVjqjapZvupF9Spn9AlpOV0UmhgDU5mB+QxeMDEGjAFjwBgwBowBY8AYMAamFAP96HyR00Xjynsg7VWjvEwVWy5Rc3EcRwp7KDF9DQA5Q7opCY3rJBQUNzEGSsOAN++SOkbV9F65OsVMbQwYA8bA1GLAWxeTqTVyG60xYAwYA8ZApwzISdEvrx216nQRd+Z46fQMqmb9GLOdA6YIJ0xCe4IcLWpXYQJMjIEyMhDJKBbMhZNo3Ab0vV8OqJyJMWAMGANlYSCSIR2un4na8Jw4SpoYA8aAMdBLBhJ1ZutQLykf70vOF/0mSu97Lq5H2d/Kky6uZ3vVyDHRw5AblhG94wb0Wk/Sw66zXcWpIhtKPTvNi9JQQeLFtWl1aRd62RY1BqrJQI/m5+qwc3oOhralzC05ylkRY8AYMAaMgRIxwIZO/+YhJ1WlNxglotRMMQaMgRYYcGsQVZIWqvWkqH5wl7+a1vqY5ycuemJT3k6weajRX0Y3aseeeGnETpfymAhJ2nREPOpSN+00G1PJYYi4MODB6RTGIElBYGIMlJ8BzbfU4TmNeByyGHWS6iPiUahMAbrLaOO3TdpRvsqZGAPGgDEw6QxoPWy2fuYx0jkiXFt56lgZY8AYMAaKZGAqrUOMdWGR3BXVlpwvODAwbyApqs1utiM7wRBPurRtbxmeeMljfJ4y3eS68LY5cHrqZTi98ei78RVOmDVoDBTDQKRmNP8aNdej+fkubPgl2CRgyyJ0yjcxBowBY6AsDEQypNn62YKxNec2Dp2khTqVKMqY9LRL7ZtcxSthtBlpDExNBiKmqJA0GP6h5K3fID9P1kvSQocQvjNPhQZl9CT0NxrkT2M8lVmD9MoOT7/EXFtK+/QL6/lI3n8uanRcBhplWl53GRgeHh5TD7qJ0QTpbm/WujEwtRnwL0IjIyNN174ezc9lOCr7gl3AGuB+cAE4EzwFTIwBY8AYmHQGWl0/mxlcdHvN+ut1fo+uH70elvVnDPQVA946lHBfONRgcKeR95oG+b3OupoO39eo06quQWVzwMjhoidzGnHdSl7TzUcrjVnZ1hhgwuux3QWqZc6X1riz0sZAKwx4F1fNtSHSSbP6Nj+bMWT5xoAxMBUYaGf9zMMLGwPd/0Sg2aYnT3OlKePGZfd1pTkkZogxUJeBfpyv3ppd2bV1sh0wRTtc3AlojhfHxCSF3uSoOV8wI0GXTJI51q0x0FcMMJfcbxJEGlirN8I2P/vqdLDBGAPGQAsMdLp+Nusqbb/25ZPKtro+N2u/1/nZ8eR5srLXNlp/xoAxMJGB7Lyt8joUWLNzfdE4kZFypeSAkUUcl+FuW0YfCX3o34oUdkXM8dIVWltrNDTp0xYS8pLWWrPSxsDUZkDzSQzgrdYiXYsrzYLa1gXI5qfYMzEGjIGpwEDR62cezuhz8W8RaNOjOtLlqTvZZTAzkg2Z602icZCXKM/EGDAGys2A5rE/h6u0Dk2lNahoJwzHOUnPzK46W/yz3xwvPhuTHGfyLL75mGRTrHtjoG8YSG+A404HZPOzUwatvjFgDFSNgaLWz2bj7pf1tVd8NePT8o0BY6B1BvphHZpKa5BzxLgjPTg4OFtxnGiR08FH4uKjo6MLFadcTdfNJ1tcn9nQHC9ZRkqQ1sSXGZw4OoEixU2MAWMgNwOJSqYXn1pc6aLE5mdRTFo7xoAxUEIGEtnUrfWz2Xi99VVPLFZBEhkpvhRif6LQxBgwBqrLgNahCu3BEjFta1B1zzez3BgwBowBY8AYMAaMAWPAGDAGjAFjwBgwBowBY6AABv4/lF7T8tfZ3I4AAAAASUVORK5CYII=;" vertex="1" parent="1">
          <mxGeometry x="120" y="360" width="980" height="61.36" as="geometry" />
        </mxCell>
        <mxCell id="SDy88jyCkdJX6beoF5j--6" value="&lt;div align=&quot;left&quot;&gt;&lt;font style=&quot;font-size: 26px;&quot;&gt;Paraphrase the given sentence by identifying the main subject, verb, and object.&amp;nbsp;&lt;/font&gt;&lt;/div&gt;&lt;div align=&quot;left&quot;&gt;&lt;font style=&quot;font-size: 26px;&quot;&gt;Replace each with synonyms or closely related words, adjusting grammar naturally.&amp;nbsp;&lt;/font&gt;&lt;/div&gt;&lt;div align=&quot;left&quot;&gt;&lt;font style=&quot;font-size: 26px;&quot;&gt;Keep the new sentence close in length to the original.&amp;nbsp;&lt;/font&gt;&lt;/div&gt;&lt;div align=&quot;left&quot;&gt;&lt;font style=&quot;font-size: 26px;&quot;&gt;Output only the final paraphrased sentence.&lt;/font&gt;&lt;/div&gt;" style="text;html=1;align=left;verticalAlign=middle;resizable=0;points=[];autosize=1;strokeColor=none;fillColor=none;" vertex="1" parent="1">
          <mxGeometry x="130" y="210" width="990" height="140" as="geometry" />
        </mxCell>
      </root>
    </mxGraphModel>
  </diagram>
</mxfile>
